<?xml version="1.0" encoding="UTF-8"?>
<svg width="752pt" height="752pt" version="1.1" viewBox="0 0 752 752" xmlns="http://www.w3.org/2000/svg">
 <g fill-rule="evenodd">
  <path d="m175.55 462.95h400.89c42.492 0 42.492 64.859 0 64.859h-400.89c-42.492 0-42.492-64.859 0-64.859zm0 11.184h400.89c27.957 0 27.957 41.934 0 41.934h-400.89c-27.957 0-27.957-41.934 0-41.934z"/>
  <path d="m175.55 343.29h400.89c42.492 0 42.492 64.859 0 64.859h-400.89c-42.492 0-42.492-64.859 0-64.859zm0 11.742h400.89c27.957 0 27.957 41.934 0 41.934h-400.89c-27.957 0-27.957-41.934 0-41.934z"/>
  <path d="m175.55 224.2h400.89c42.492 0 42.492 64.859 0 64.859h-400.89c-42.492 0-42.492-64.859 0-64.859zm0 11.184h400.89c27.957 0 27.957 42.492 0 42.492h-400.89c-27.957 0-27.957-42.492 0-42.492z"/>
 </g>
</svg>
